HIERARCHY
ROOT reference
{
  OFFSET 0 0 0
  CHANNELS 6 Xposition Yposition Zposition Zrotation Xrotation Yrotation
  JOINT Hips
  {
    OFFSET 346.547 88.4868 223.89
    CHANNELS 3 Zrotation Xrotation Yrotation
    JOINT RightUpLeg
    {
      OFFSET -9.27468 -1.51611 -0.00175448
      CHANNELS 3 Zrotation Xrotation Yrotation
      JOINT RightLeg
      {
        OFFSET -0.00464511 -41.8738 0.0184652
        CHANNELS 3 Zrotation Xrotation Yrotation
        JOINT RightFoot
        {
          OFFSET -0.626239 -42.3044 -0.171503
          CHANNELS 3 Zrotation Xrotation Yrotation
          End Site
          {
            OFFSET 0 -7.69 17.5
          }
        }
      }
    }
    JOINT LeftUpLeg
    {
      OFFSET 9.30083 -1.68454 -0.0454748
      CHANNELS 3 Zrotation Xrotation Yrotation
      JOINT LeftLeg
      {
        OFFSET 0.0692631 -41.8513 -0.097029
        CHANNELS 3 Zrotation Xrotation Yrotation
        JOINT LeftFoot
        {
          OFFSET 0.520945 -41.523 0.446349
          CHANNELS 3 Zrotation Xrotation Yrotation
          End Site
          {
            OFFSET 0 -7.69 17.5
          }
        }
      }
    }
    JOINT Spine
    {
      OFFSET 0.0770133 14.2992 0.0590021
      CHANNELS 3 Zrotation Xrotation Yrotation
      JOINT Spine1
      {
        OFFSET 0.0471461 9.71665 0.020973
        CHANNELS 3 Zrotation Xrotation Yrotation
        JOINT Spine2
        {
          OFFSET 0.051283 10.117 0.000913966
          CHANNELS 3 Zrotation Xrotation Yrotation
          JOINT Spine3
          {
            OFFSET 0.0447963 9.71088 0.00221408
            CHANNELS 3 Zrotation Xrotation Yrotation
            JOINT Neck
            {
              OFFSET 0.115655 10.3749 0.0448519
              CHANNELS 3 Zrotation Xrotation Yrotation
              JOINT Head
              {
                OFFSET 0.0937003 9.47807 0.0215077
                CHANNELS 3 Zrotation Xrotation Yrotation
                End Site
                {
                  OFFSET 0 15.95 0
                }
              }
            }
            JOINT RightShoulder
            {
              OFFSET -3.17023 6.91072 -0.0050072
              CHANNELS 3 Zrotation Xrotation Yrotation
              JOINT RightArm
              {
                OFFSET -12.7573 0.00694711 0.0313031
                CHANNELS 3 Zrotation Xrotation Yrotation
                JOINT RightForeArm
                {
                  OFFSET -26.5152 -0.0619338 -0.0331286
                  CHANNELS 3 Zrotation Xrotation Yrotation
                  JOINT RightHand
                  {
                    OFFSET -25.9971 0.0398378 -0.0269922
                    CHANNELS 3 Zrotation Xrotation Yrotation
                    JOINT RightHandThumb1
                    {
                      OFFSET -2.48905 0.190105 3.12053
                      CHANNELS 3 Zrotation Xrotation Yrotation
                      JOINT RightHandThumb2
                      {
                        OFFSET -3.68274 0 0
                        CHANNELS 3 Zrotation Xrotation Yrotation
                        JOINT RightHandThumb3
                        {
                          OFFSET -2.55832 0 0
                          CHANNELS 3 Zrotation Xrotation Yrotation
                          End Site
                          {
                            OFFSET -2.194 0 0
                          }
                        }
                      }
                    }
                    JOINT RightInHandIndex
                    {
                      OFFSET -3.22368 0.508421 1.97842
                      CHANNELS 3 Zrotation Xrotation Yrotation
                      JOINT RightHandIndex1
                      {
                        OFFSET -5.21684 -0.091368 0.999158
                        CHANNELS 3 Zrotation Xrotation Yrotation
                        JOINT RightHandIndex2
                        {
                          OFFSET -3.61937 0 0
                          CHANNELS 3 Zrotation Xrotation Yrotation
                          JOINT RightHandIndex3
                          {
                            OFFSET -2.0521 0 0
                            CHANNELS 3 Zrotation Xrotation Yrotation
                            End Site
                            {
                              OFFSET -1.805 0 0
                            }
                          }
                        }
                      }
                    }
                    JOINT RightInHandMiddle
                    {
                      OFFSET -3.38211 0.517263 0.756737
                      CHANNELS 3 Zrotation Xrotation Yrotation
                      JOINT RightHandMiddle1
                      {
                        OFFSET -5.17411 -0.084 0.313895
                        CHANNELS 3 Zrotation Xrotation Yrotation
                        JOINT RightHandMiddle2
                        {
                          OFFSET -3.94947 0 0
                          CHANNELS 3 Zrotation Xrotation Yrotation
                          JOINT RightHandMiddle3
                          {
                            OFFSET -2.47579 0 0
                            CHANNELS 3 Zrotation Xrotation Yrotation
                            End Site
                            {
                              OFFSET -1.975 0 0
                            }
                          }
                        }
                      }
                    }
                    JOINT RightInHandRing
                    {
                      OFFSET -3.36516 0.537895 -0.128947
                      CHANNELS 3 Zrotation Xrotation Yrotation
                      JOINT RightHandRing1
                      {
                        OFFSET -4.63474 -0.022105 -0.478947
                        CHANNELS 3 Zrotation Xrotation Yrotation
                        JOINT RightHandRing2
                        {
                          OFFSET -3.44238 0 0
                          CHANNELS 3 Zrotation Xrotation Yrotation
                          JOINT RightHandRing3
                          {
                            OFFSET -2.3881 0 0
                            CHANNELS 3 Zrotation Xrotation Yrotation
                            End Site
                            {
                              OFFSET -1.857 0 0
                            }
                          }
                        }
                      }
                    }
                    JOINT RightInHandPinky
                    {
                      OFFSET -3.16105 0.469368 -1.20179
                      CHANNELS 3 Zrotation Xrotation Yrotation
                      JOINT RightHandPinky1
                      {
                        OFFSET -4.14105 -0.022105 -1.09053
                        CHANNELS 3 Zrotation Xrotation Yrotation
                        JOINT RightHandPinky2
                        {
                          OFFSET -2.75653 0 0
                          CHANNELS 3 Zrotation Xrotation Yrotation
                          JOINT RightHandPinky3
                          {
                            OFFSET -1.74189 0 0
                            CHANNELS 3 Zrotation Xrotation Yrotation
                            End Site
                            {
                              OFFSET -1.645 0 0
                            }
                          }
                        }
                      }
                    }
                  }
                }
              }
            }
            JOINT LeftShoulder
            {
              OFFSET 3.25178 6.92057 -0.0384945
              CHANNELS 3 Zrotation Xrotation Yrotation
              JOINT LeftArm
              {
                OFFSET 12.8462 -0.0383255 -0.0637898
                CHANNELS 3 Zrotation Xrotation Yrotation
                JOINT LeftForeArm
                {
                  OFFSET 26.4888 -0.0608964 -0.0673835
                  CHANNELS 3 Zrotation Xrotation Yrotation
                  JOINT LeftHand
                  {
                    OFFSET 25.9932 -0.0402352 -0.0274148
                    CHANNELS 3 Zrotation Xrotation Yrotation
                    JOINT LeftHandThumb1
                    {
                      OFFSET 2.48905 0.190105 3.12053
                      CHANNELS 3 Zrotation Xrotation Yrotation
                      JOINT LeftHandThumb2
                      {
                        OFFSET 3.68274 0 0
                        CHANNELS 3 Zrotation Xrotation Yrotation
                        JOINT LeftHandThumb3
                        {
                          OFFSET 2.55832 0 0
                          CHANNELS 3 Zrotation Xrotation Yrotation
                          End Site
                          {
                            OFFSET 2.194 0 0
                          }
                        }
                      }
                    }
                    JOINT LeftInHandIndex
                    {
                      OFFSET 3.22368 0.508421 1.97842
                      CHANNELS 3 Zrotation Xrotation Yrotation
                      JOINT LeftHandIndex1
                      {
                        OFFSET 5.21684 -0.091368 0.999158
                        CHANNELS 3 Zrotation Xrotation Yrotation
                        JOINT LeftHandIndex2
                        {
                          OFFSET 3.61937 0 0
                          CHANNELS 3 Zrotation Xrotation Yrotation
                          JOINT LeftHandIndex3
                          {
                            OFFSET 2.0521 0 0
                            CHANNELS 3 Zrotation Xrotation Yrotation
                            End Site
                            {
                              OFFSET 1.805 0 0
                            }
                          }
                        }
                      }
                    }
                    JOINT LeftInHandMiddle
                    {
                      OFFSET 3.38211 0.517263 0.756737
                      CHANNELS 3 Zrotation Xrotation Yrotation
                      JOINT LeftHandMiddle1
                      {
                        OFFSET 5.17411 -0.084 0.313895
                        CHANNELS 3 Zrotation Xrotation Yrotation
                        JOINT LeftHandMiddle2
                        {
                          OFFSET 3.94947 0 0
                          CHANNELS 3 Zrotation Xrotation Yrotation
                          JOINT LeftHandMiddle3
                          {
                            OFFSET 2.47579 0 0
                            CHANNELS 3 Zrotation Xrotation Yrotation
                            End Site
                            {
                              OFFSET 1.975 0 0
                            }
                          }
                        }
                      }
                    }
                    JOINT LeftInHandRing
                    {
                      OFFSET 3.36516 0.537895 -0.128947
                      CHANNELS 3 Zrotation Xrotation Yrotation
                      JOINT LeftHandRing1
                      {
                        OFFSET 4.63474 -0.022105 -0.478947
                        CHANNELS 3 Zrotation Xrotation Yrotation
                        JOINT LeftHandRing2
                        {
                          OFFSET 3.44238 0 0
                          CHANNELS 3 Zrotation Xrotation Yrotation
                          JOINT LeftHandRing3
                          {
                            OFFSET 2.3881 0 0
                            CHANNELS 3 Zrotation Xrotation Yrotation
                            End Site
                            {
                              OFFSET 1.857 0 0
                            }
                          }
                        }
                      }
                    }
                    JOINT LeftInHandPinky
                    {
                      OFFSET 3.16105 0.469368 -1.20179
                      CHANNELS 3 Zrotation Xrotation Yrotation
                      JOINT LeftHandPinky1
                      {
                        OFFSET 4.14105 -0.022105 -1.09053
                        CHANNELS 3 Zrotation Xrotation Yrotation
                        JOINT LeftHandPinky2
                        {
                          OFFSET 2.75653 0 0
                          CHANNELS 3 Zrotation Xrotation Yrotation
                          JOINT LeftHandPinky3
                          {
                            OFFSET 1.74189 0 0
                            CHANNELS 3 Zrotation Xrotation Yrotation
                            End Site
                            {
                              OFFSET 1.645 0 0
                            }
                          }
                        }
                      }
                    }
                  }
                }
              }
            }
          }
        }
      }
    }
  }
}
MOTION
Frames: 2
Frame Time: 0.00833333
9.000000000000000000e+02 0.000000000000000000e+00 0.000000000000000000e+00 0.000000000000000000e+00 0.000000000000000000e+00 0.000000000000000000e+00 -4.416589807623270580e+00 -3.869187806261485951e-01 4.430183393644962564e+01 -1.877334198900321027e+01 1.491637167059398195e+01 -1.561409529255564976e+01 1.905737057581933458e+00 -3.390537731757359730e+00 -6.290744872846151914e+00 -4.055804275600173092e+00 5.347688369977142031e+00 -1.472125029444453936e+01 -1.784368997440786231e+01 -2.069989798032555228e+00 -1.431873512571152851e+01 1.287958719159684406e+01 -7.355615062156612538e+00 -1.493897719041329708e+01 -2.635036548631315423e+00 6.208773695382387992e+00 -1.937493752748563836e+01 3.121672814443846367e+00 3.324883023090537293e+00 1.796066888905895453e+01 9.069030693691896294e-01 5.449437841621332934e-01 4.532574840451379927e+00 1.471807768036051955e+00 7.771297082075576679e-01 7.029142134890878246e+00 4.779844294223234979e-01 5.611667136276921042e-02 -2.000859496666788750e+00 1.135988860388852606e+00 7.378328499072664970e-01 -2.813992932061892560e+01 8.047968613331899945e+00 1.048803143145520256e+00 -2.136915959620379724e+01 -1.201111904327031965e+00 -9.533842337066682049e+00 1.284990607600784429e+01 -2.213740216317857001e+00 2.888672879520780512e+01 3.235619054935120431e+01 -1.631385096647894883e+01 -4.027630587548078012e+00 -3.462903033853739743e+01 4.128245194172409427e+00 3.184371818026910272e+00 -1.690365818704818279e+00 0.000000000000000000e+00 0.000000000000000000e+00 0.000000000000000000e+00 6.903027308103989545e-15 -1.624119227582399078e-15 0.000000000000000000e+00 6.155480814233696807e-15 -1.780230477103599417e-16 0.000000000000000000e+00 7.105091040689969558e-16 1.078258246424828944e-16 1.324692894763920463e-15 0.000000000000000000e+00 0.000000000000000000e+00 0.000000000000000000e+00 0.000000000000000000e+00 4.227419528536516743e-15 1.589974960143336158e-14 0.000000000000000000e+00 5.291012091294683627e-16 4.832513243588351865e-15 7.105091040689969558e-16 1.078258246424828944e-16 1.324692894763920463e-15 0.000000000000000000e+00 -2.946594449786894364e-15 -4.448949919018059726e-15 0.000000000000000000e+00 3.040281603076727806e-15 1.091618574241032463e-14 0.000000000000000000e+00 1.682107755822219114e-15 6.566907358763726901e-15 7.105091040689969558e-16 1.078258246424828944e-16 1.324692894763920463e-15 0.000000000000000000e+00 0.000000000000000000e+00 0.000000000000000000e+00 0.000000000000000000e+00 2.051711282901646685e-15 8.359742387428405744e-15 0.000000000000000000e+00 -1.233343841512230123e-17 9.148371339214566446e-15 7.105091040689969558e-16 1.078258246424828944e-16 1.324692894763920463e-15 0.000000000000000000e+00 0.000000000000000000e+00 0.000000000000000000e+00 0.000000000000000000e+00 2.440323155442988791e-15 9.227359456456433085e-15 0.000000000000000000e+00 1.411820914635392400e-15 4.229451970096462470e-15 -2.008319084244187369e+00 3.284671698842120513e+00 8.546637471569267674e+00 -2.060308404264089788e+01 -8.326767190745863800e+00 1.925519674010151761e+01 -6.886977706475025052e+00 -2.297600677073704745e+01 -2.192529894675460866e+01 3.110599092056600234e+00 -6.507986926489319757e-01 -1.364019618182832794e+00 0.000000000000000000e+00 0.000000000000000000e+00 0.000000000000000000e+00 1.735401362428881733e-15 6.661608271462592004e-16 0.000000000000000000e+00 2.975083616992371515e-15 -1.926101292941471060e-15 0.000000000000000000e+00 -3.080812112913442963e-16 -1.124015819753078287e-16 -2.379345397012975953e-16 0.000000000000000000e+00 0.000000000000000000e+00 0.000000000000000000e+00 0.000000000000000000e+00 3.049924233208972463e-16 -2.898723949495744307e-15 0.000000000000000000e+00 1.745678875515964389e-16 -1.049758724400043036e-15 -3.080812112913442963e-16 -1.124015819753078287e-16 -2.379345397012975953e-16 0.000000000000000000e+00 3.140050003736801187e-16 -8.986911352163622690e-16 0.000000000000000000e+00 2.395495626806784114e-15 -3.406531539893228738e-15 0.000000000000000000e+00 1.084781975709071261e-15 -2.161960785783439840e-15 -3.080812112913442963e-16 -1.124015819753078287e-16 -2.379345397012975953e-16 0.000000000000000000e+00 0.000000000000000000e+00 0.000000000000000000e+00 0.000000000000000000e+00 2.570444476135151118e-15 -4.430189246998011960e-16 0.000000000000000000e+00 -8.823771391638873863e-16 -2.035929457114999227e-15 -3.080812112913442963e-16 -1.124015819753078287e-16 -2.379345397012975953e-16 0.000000000000000000e+00 0.000000000000000000e+00 0.000000000000000000e+00 0.000000000000000000e+00 -9.592203858449346811e-16 -6.691759156508565975e-16 0.000000000000000000e+00 -4.890543024597340184e-16 -2.639890546705772758e-15
9.000000000000000000e+02 0.000000000000000000e+00 0.000000000000000000e+00 0.000000000000000000e+00 0.000000000000000000e+00 0.000000000000000000e+00 -4.475363282422663680e+00 -5.860336905126027895e-01 4.434316394520930515e+01 -1.871004667002124577e+01 1.522461274482919613e+01 -1.543637691782671517e+01 1.879375457434016017e+00 -3.569552121209845996e+00 -6.276418045816125613e+00 -4.181531421079270672e+00 5.571427314025066302e+00 -1.463873832538215858e+01 -1.793294330370713752e+01 -1.781724453860453528e+00 -1.425424948277017734e+01 1.280600007781469785e+01 -7.428771016087213575e+00 -1.489582053329286992e+01 -2.644795266048503457e+00 6.180943672395548205e+00 -1.942881446288571112e+01 3.061226533951448836e+00 3.324785962247342130e+00 1.815964325176316407e+01 8.953744767076250444e-01 5.336226222743856162e-01 4.582095748750314002e+00 1.450841565462829053e+00 7.578939775543618307e-01 7.110462090673460800e+00 4.779815432036622624e-01 5.445415034218457906e-02 -2.008071943122375469e+00 1.157794193723323151e+00 7.300026873712036624e-01 -2.830907455263790595e+01 8.036730657342207707e+00 1.098488088649128169e+00 -2.139148174894760501e+01 -1.164254587574181876e+00 -9.517181680627784246e+00 1.294821300216654691e+01 -2.661932720492410809e+00 2.889784887229523136e+01 3.251819746135482347e+01 -1.624970671607818673e+01 -3.729460938364436817e+00 -3.460023781782236796e+01 4.167151659401759467e+00 3.219981616403720270e+00 -1.922391509362491702e+00 0.000000000000000000e+00 0.000000000000000000e+00 0.000000000000000000e+00 6.906625541214795296e-15 -1.573270469659744311e-15 0.000000000000000000e+00 6.097621689523038487e-15 -1.420314599377578105e-16 0.000000000000000000e+00 7.451814573040283592e-16 7.933551563177576514e-17 1.352939733418716580e-15 0.000000000000000000e+00 0.000000000000000000e+00 0.000000000000000000e+00 0.000000000000000000e+00 4.311176255724993798e-15 1.615978877018044332e-14 0.000000000000000000e+00 4.896806721198715745e-16 4.920617485407588981e-15 7.451814573040283592e-16 7.933551563177576514e-17 1.352939733418716580e-15 0.000000000000000000e+00 -2.953976107293676429e-15 -4.523914062152903017e-15 0.000000000000000000e+00 3.049433648089045659e-15 1.087319358464415158e-14 0.000000000000000000e+00 1.637635961161391455e-15 6.474208708500557031e-15 7.451814573040283592e-16 7.933551563177576514e-17 1.352939733418716580e-15 0.000000000000000000e+00 0.000000000000000000e+00 0.000000000000000000e+00 0.000000000000000000e+00 2.115447538326358757e-15 8.343373546475916036e-15 0.000000000000000000e+00 -1.064691723549976859e-17 9.252363302380899485e-15 7.451814573040283592e-16 7.933551563177576514e-17 1.352939733418716580e-15 0.000000000000000000e+00 0.000000000000000000e+00 0.000000000000000000e+00 0.000000000000000000e+00 2.457326693038896364e-15 9.337815022036392415e-15 0.000000000000000000e+00 1.411005343089844587e-15 4.198908005207954573e-15 -2.065718186994452310e+00 3.279986093397768254e+00 8.489171510802568932e+00 -2.076990302021014401e+01 -8.423626474852326851e+00 1.947862148265688020e+01 -6.906339851323154200e+00 -2.318284493661432322e+01 -2.261251840014296377e+01 3.194220213731193247e+00 -6.868041916476834707e-01 -1.530090143029052330e+00 0.000000000000000000e+00 0.000000000000000000e+00 0.000000000000000000e+00 1.734292502207423489e-15 6.732881703380536946e-16 0.000000000000000000e+00 2.920727890876783809e-15 -1.982310717106585530e-15 0.000000000000000000e+00 -2.722597668547887457e-16 -1.099257462151109577e-16 -2.328203291957175981e-16 0.000000000000000000e+00 0.000000000000000000e+00 0.000000000000000000e+00 0.000000000000000000e+00 2.270827206736769947e-16 -2.937170868199870888e-15 0.000000000000000000e+00 2.024118146953402796e-16 -1.020205302630948074e-15 -2.722597668547887457e-16 -1.099257462151109577e-16 -2.328203291957175981e-16 0.000000000000000000e+00 3.171106395738710186e-16 -8.361925946217728604e-16 0.000000000000000000e+00 2.388050263518248418e-15 -3.410940561870555323e-15 0.000000000000000000e+00 1.155990713763368969e-15 -2.071180750480624280e-15 -2.722597668547887457e-16 -1.099257462151109577e-16 -2.328203291957175981e-16 0.000000000000000000e+00 0.000000000000000000e+00 0.000000000000000000e+00 0.000000000000000000e+00 2.597732905178540896e-15 -3.156661342573591115e-16 0.000000000000000000e+00 -8.922372420303534178e-16 -1.982510095105649702e-15 -2.722597668547887457e-16 -1.099257462151109577e-16 -2.328203291957175981e-16 0.000000000000000000e+00 0.000000000000000000e+00 0.000000000000000000e+00 0.000000000000000000e+00 -9.889515380804372927e-16 -6.012822373370708102e-16 0.000000000000000000e+00 -5.133112588735334710e-16 -2.660012247174207543e-15
